HIERARCHY
ROOT Hips
{
	OFFSET 0.000000 8.830580 0.000000
	CHANNELS 6 Xposition Yposition Zposition Zrotation Yrotation Xrotation 
	JOINT Spine
	{
		OFFSET 0.000000 0.010000 0.000000
		CHANNELS 3 Zrotation Yrotation Xrotation
		JOINT Spine1
		{
			OFFSET 0.000000 2.459130 0.000000
			CHANNELS 3 Zrotation Yrotation Xrotation
			JOINT Neck
			{
				OFFSET 0.000000 2.484630 0.000000
				CHANNELS 3 Zrotation Yrotation Xrotation
				JOINT Head_virtual
				{
					OFFSET 0.000000 0.000000 0.000000
					CHANNELS 3 Zrotation Yrotation Xrotation
					JOINT Head
					{
						OFFSET 0.000000 0.927525 0.000000
						CHANNELS 3 Zrotation Yrotation Xrotation
						End Site
						{
							OFFSET 0.000000 0.000000 0.000000
						}
					}
				}
				JOINT LeftUpArm_virtual
				{
					OFFSET 0.000000 0.000000 0.000000
					CHANNELS 3 Zrotation Yrotation Xrotation
					JOINT LeftUpArm
					{
						OFFSET 1.248820 0.000000 0.000000
						CHANNELS 3 Zrotation Yrotation Xrotation
						JOINT LeftForeArm
						{
							OFFSET 2.597580 0.000000 0.000000
							CHANNELS 3 Zrotation Yrotation Xrotation
							JOINT LeftHand
							{
								OFFSET 2.455420 0.000000 0.000000
								CHANNELS 3 Zrotation Yrotation Xrotation
								End Site
								{
									OFFSET 0.000000 0.000000 0.000000
								}
							}
						}
					}
				}
				JOINT RightUpArm_virtual
				{
					OFFSET -0.000000 -0.000000 -0.000000
					CHANNELS 3 Zrotation Yrotation Xrotation
					JOINT RightUpArm
					{
						OFFSET -1.248820 -0.000000 -0.000000
						CHANNELS 3 Zrotation Yrotation Xrotation
						JOINT RightForeArm
						{
							OFFSET -2.597580 -0.000000 -0.000000
							CHANNELS 3 Zrotation Yrotation Xrotation
							JOINT RightHand
							{
								OFFSET -2.455420 -0.000000 -0.000000
								CHANNELS 3 Zrotation Yrotation Xrotation
								End Site
								{
									OFFSET 0.000000 0.000000 0.000000
								}
							}
						}
					}
				}
			}
		}
	}
	JOINT LeftUpLeg
	{
		OFFSET 1.271939 0.000000 0.000000
		CHANNELS 3 Zrotation Yrotation Xrotation
		JOINT LeftLowLeg
		{
			OFFSET 0.000000 -4.342910 0.000000
			CHANNELS 3 Zrotation Yrotation Xrotation
			JOINT LeftFoot
			{
				OFFSET 0.000000 -4.487670 0.000000
				CHANNELS 3 Zrotation Yrotation Xrotation
				JOINT LeftToeBase
				{
					OFFSET 0.000000 0.000000 1.515070
					CHANNELS 3 Zrotation Yrotation Xrotation
					End Site
					{
						OFFSET 0.000000 0.000000 0.000000
					}
				}
			}
		}
	}
	JOINT RightUpLeg
	{
		OFFSET -1.271939 0.000000 0.000000
		CHANNELS 3 Zrotation Yrotation Xrotation
		JOINT RightLowLeg
		{
			OFFSET 0.000000 -4.342910 0.000000
			CHANNELS 3 Zrotation Yrotation Xrotation
			JOINT RightFoot
			{
				OFFSET 0.000000 -4.487670 0.000000
				CHANNELS 3 Zrotation Yrotation Xrotation
				JOINT RightToeBase
				{
					OFFSET 0.000000 0.000000 1.515070
					CHANNELS 3 Zrotation Yrotation Xrotation
					End Site
					{
						OFFSET 0.000000 0.000000 0.000000
					}
				}
			}
		}
	}
}
MOTION
Frames: 13
Frame Time: 0.041667
-19.267479 9.206766 46.043529 -175.356355 -2.762898 -171.372653 -1.642558 2.682365 -10.322734 -2.502125 4.652697 11.708125 0.000000 0.000000 0.000000 24.531004 -13.495630 -11.341984 5.641063 22.728901 -44.062908 -14.057600 5.289200 4.804560 -35.199200 -24.320499 18.082500 180.000000 -63.922997 180.000000 32.237000 8.800510 8.448110 18.618601 6.261930 12.238800 -6.895810 51.184299 -6.417360 0.000000 57.486301 0.000000 -15.032000 3.139080 23.060600 3.009582 0.710286 -10.030379 0.000000 0.000000 7.364480 10.447558 1.275373 7.877984 0.000000 0.000000 -34.207899 1.810581 -4.721090 -6.512170 0.000000 0.000000 4.647510 8.462605 -6.882628 11.744093 0.000000 0.000000 -26.510700 
-19.267290 9.205873 46.040461 -175.378618 -3.279266 -171.422197 -1.579959 2.618333 -10.318090 -2.666909 4.566682 11.712809 0.000000 0.000000 0.000000 24.489149 -13.527715 -11.409575 5.974531 22.597984 -43.967769 -14.144600 5.122260 5.084720 -35.191601 -24.838499 18.909700 -180.000000 -64.098999 180.000000 31.769501 8.493880 9.461530 18.459400 6.352540 11.537800 -6.246720 50.297798 -6.621780 0.000000 53.128300 0.000000 -14.477700 2.295700 27.433901 3.052497 0.299012 -10.074139 0.000000 0.000000 7.367940 10.432772 1.174139 7.898019 0.000000 0.000000 -34.158100 1.854578 -5.247106 -6.307247 0.000000 0.000000 4.520980 8.515707 -6.850958 11.690135 0.000000 0.000000 -26.508300 
-19.266306 9.205460 46.036489 -175.407035 -3.863690 -171.453173 -1.703866 2.458558 -10.309393 -2.489840 4.449793 11.588915 0.000000 0.000000 0.000000 24.175153 -13.517176 -11.219049 6.284541 22.253961 -44.070045 -14.458400 5.038270 5.466140 -35.093601 -25.441000 19.768400 -180.000000 -64.383003 180.000000 31.773800 8.351320 9.609550 18.369301 6.527450 12.413000 -7.354700 48.967602 -8.341890 0.000000 48.712502 0.000000 -13.221100 1.771520 30.567200 3.106880 -0.175331 -10.153348 0.000000 0.000000 7.382440 10.436326 1.061310 7.951143 0.000000 0.000000 -34.206800 1.905351 -5.804787 -6.123690 0.000000 0.000000 4.426160 8.535115 -6.862643 11.615859 0.000000 0.000000 -26.502600 
-19.265113 9.204436 46.028783 -175.423302 -4.425722 -171.492223 -1.657648 2.378681 -10.312383 -2.671259 4.349161 11.482312 0.000000 0.000000 0.000000 23.928014 -13.447149 -11.085874 6.687428 22.016799 -44.042771 -14.446000 4.911750 5.273500 -35.417301 -25.531700 21.156300 180.000000 -64.598000 -180.000000 31.717501 8.435060 9.877380 18.503901 6.600090 12.667900 -7.527060 47.744900 -8.188240 0.000000 44.422401 0.000000 -11.576500 0.999184 32.638100 3.172205 -0.609851 -10.196183 0.000000 0.000000 7.394200 10.430874 0.931408 7.956508 0.000000 0.000000 -34.246401 1.960303 -6.277940 -5.949909 0.000000 0.000000 4.406670 8.553110 -6.924929 11.476698 0.000000 0.000000 -26.502000 
-19.263848 9.203218 46.021417 -175.443972 -4.968357 -171.535926 -1.824824 2.163091 -10.476950 -2.381293 4.201098 11.619554 0.000000 0.000000 0.000000 23.235962 -13.267655 -11.022710 7.288573 21.561314 -43.941920 -14.741800 4.887050 5.238900 -35.571701 -25.789801 22.208200 180.000000 -64.827003 -180.000000 31.449301 8.709560 10.014700 18.183100 6.969130 12.510800 -6.674660 46.427700 -6.593260 0.000000 40.437099 0.000000 -9.369280 -0.349830 33.248299 3.239065 -1.077870 -10.253934 0.000000 0.000000 7.453310 10.414334 0.846021 7.942732 0.000000 0.000000 -34.266500 1.988188 -6.499225 -5.826976 0.000000 0.000000 4.504420 8.648486 -7.172514 11.239424 0.000000 0.000000 -26.435800 
-19.262511 9.201941 46.011961 -175.467129 -5.466904 -171.650885 -1.839715 2.139384 -10.523619 -2.480829 4.179243 11.643592 0.000000 0.000000 0.000000 22.889857 -13.188367 -10.921275 7.901903 21.205788 -43.814316 -14.788600 4.698990 5.297860 -35.779400 -25.949200 22.990200 -180.000000 -64.931999 180.000000 30.170401 9.115390 10.392400 17.969900 7.158150 11.997800 -5.046520 45.009499 -3.325590 0.000000 36.877800 0.000000 -7.334900 -1.548820 32.194500 3.298265 -1.545208 -10.218455 0.000000 0.000000 7.516420 10.393073 0.810121 7.904405 0.000000 0.000000 -34.214001 2.003648 -6.746457 -5.619213 0.000000 0.000000 4.586190 8.719497 -7.355239 11.026414 0.000000 0.000000 -26.405300 
-19.260672 9.201106 46.001701 -175.478263 -5.890695 -171.718162 -2.063464 1.995568 -10.699966 -2.142044 4.121768 11.844678 0.000000 0.000000 0.000000 22.375293 -13.054328 -10.887081 8.319860 20.884886 -43.806813 -15.130100 4.746480 5.371120 -35.887901 -26.257401 23.661200 -180.000000 -65.035004 180.000000 29.131701 9.124470 11.211000 17.587099 7.524860 11.647700 -3.533840 43.283901 0.233057 0.000000 34.431499 0.000000 -4.476240 -3.201490 30.118000 3.360691 -1.923796 -10.220323 0.000000 0.000000 7.594880 10.365856 0.759059 7.865285 0.000000 0.000000 -34.251600 2.041044 -6.950785 -5.451033 0.000000 0.000000 4.629290 8.732760 -7.559696 10.859680 0.000000 0.000000 -26.379800 
-19.259094 9.200369 45.989090 -175.495535 -6.324563 -171.878105 -2.132997 2.027194 -10.724291 -2.171442 4.174811 11.954387 0.000000 0.000000 0.000000 22.308802 -13.098120 -10.879890 8.682918 20.699422 -43.817445 -15.284000 4.608560 5.400360 -35.973301 -26.420900 24.458099 180.000000 -65.057999 -180.000000 28.614700 8.727150 11.960600 17.041300 7.711750 10.666700 -0.792541 41.382000 5.182550 0.000000 33.166801 0.000000 -2.110380 -4.500340 28.696600 3.429308 -2.433431 -10.112015 0.000000 0.000000 7.667890 10.347480 0.816051 7.834410 0.000000 0.000000 -34.245399 2.058306 -7.243994 -5.172739 0.000000 0.000000 4.671310 8.724254 -7.670004 10.703729 0.000000 0.000000 -26.394300 
-19.257041 9.199105 45.978451 -175.510909 -6.681344 -171.941601 -2.290894 2.017960 -10.861718 -1.994317 4.223835 12.173168 0.000000 0.000000 0.000000 21.940478 -13.051659 -11.052939 9.408219 20.369233 -43.746233 -15.513400 4.524440 5.291990 -36.092602 -26.450500 25.291800 180.000000 -64.987999 -180.000000 28.475500 8.453170 12.599500 17.514601 7.719420 11.931600 -1.796880 39.291901 7.894790 0.000000 33.177502 0.000000 -0.306449 -5.641610 26.471701 3.498067 -2.909815 -10.107969 0.000000 0.000000 7.764670 10.333797 0.924156 7.788330 0.000000 0.000000 -34.239099 2.092546 -7.629148 -5.045244 0.000000 0.000000 4.778250 8.741026 -7.615459 10.532606 0.000000 0.000000 -26.377100 
-19.254182 9.197548 45.964265 -175.522505 -7.093796 -172.134899 -2.537744 1.876952 -10.978864 -1.591327 4.184494 12.585798 0.000000 0.000000 0.000000 21.421274 -12.949101 -11.248418 9.998860 20.067922 -43.794052 -15.853600 4.533330 5.116530 -36.177700 -26.396000 26.010500 180.000000 -64.848999 -180.000000 28.420700 8.408590 12.806500 17.002800 7.770230 11.723200 -0.097085 37.476799 12.027600 0.000000 34.107300 0.000000 0.709377 -6.076890 25.581600 3.575739 -3.433259 -9.958495 0.000000 0.000000 7.847670 10.289838 1.001074 7.716565 0.000000 0.000000 -34.212099 2.117009 -7.949650 -4.723212 0.000000 0.000000 4.820140 8.752483 -7.687131 10.339749 0.000000 0.000000 -26.332300 
-19.250800 9.195852 45.951620 -175.532814 -7.411884 -172.202085 -2.743359 1.760675 -11.161937 -1.283183 4.150547 12.903323 0.000000 0.000000 0.000000 20.894730 -12.817368 -11.410228 10.532270 19.781432 -43.779443 -16.087601 4.468880 5.043140 -36.262299 -26.139900 26.423401 -180.000000 -64.650002 -180.000000 27.977200 8.666880 12.586900 16.872900 7.730160 11.805600 0.975243 35.677299 15.585800 0.000000 35.877701 0.000000 1.367770 -5.857410 23.885500 3.633652 -3.746815 -9.933146 0.000000 0.000000 7.949420 10.253097 1.001849 7.618512 0.000000 0.000000 -34.224300 2.147945 -8.162936 -4.554986 0.000000 0.000000 4.869040 8.797987 -7.749513 10.160285 0.000000 0.000000 -26.302000 
-19.247526 9.194429 45.939274 -175.529558 -7.696957 -172.303453 -2.819443 1.692452 -11.216657 -1.185620 4.113333 13.032760 0.000000 0.000000 0.000000 20.338284 -12.644768 -11.362433 10.998215 19.500681 -43.876612 -16.253000 4.368320 4.975720 -36.293701 -25.732401 26.815701 -180.000000 -64.509003 -180.000000 27.687099 8.815380 12.380400 17.030800 7.472080 12.101700 1.676950 34.134998 18.531700 0.000000 38.232101 0.000000 2.825460 -5.162050 21.308599 3.702642 -4.043588 -9.859588 0.000000 0.000000 8.026200 10.192236 0.996558 7.519414 0.000000 0.000000 -34.196699 2.188009 -8.404146 -4.334816 0.000000 0.000000 4.854930 8.780722 -7.788798 10.057912 0.000000 0.000000 -26.344000 
-19.244403 9.192798 45.922976 -175.551773 -8.018329 -172.335148 -3.100017 1.330672 -11.526251 -0.623792 3.876243 13.458666 0.000000 0.000000 0.000000 19.232763 -12.267232 -11.450435 11.523777 19.065966 -43.846265 -16.641800 4.514620 4.804660 -36.272999 -25.280500 27.052200 -180.000000 -64.397003 180.000000 27.383400 8.854750 12.055400 17.795401 7.147000 14.550300 -0.457017 32.969799 18.611799 0.000000 41.279400 0.000000 4.253240 -4.512050 16.777300 3.762068 -4.424298 -9.794252 0.000000 0.000000 8.021870 10.155046 1.040703 7.453597 0.000000 0.000000 -34.173500 2.221897 -8.847695 -4.132275 0.000000 0.000000 4.809190 8.786319 -7.662000 9.938380 0.000000 0.000000 -26.317100 
